<svg width="24" height="18" viewBox="0 0 24 18" fill="none" xmlns="http://www.w3.org/2000/svg">
<path d="M20.2809 1.50747C18.7466 0.793091 17.127 0.286285 15.4633 0C15.2356 0.413926 15.0296 0.8398 14.8462 1.27584C13.074 1.00424 11.2718 1.00424 9.49964 1.27584C9.31608 0.839845 9.11009 0.413976 8.88252 0C7.21774 0.288702 5.59703 0.796712 4.06127 1.51121C1.01241 6.099 0.185913 10.5729 0.599162 14.9832C2.38465 16.3249 4.38313 17.3453 6.50771 18C6.9861 17.3456 7.40942 16.6514 7.77317 15.9247C7.08228 15.6622 6.41545 15.3384 5.78039 14.957C5.94753 14.8337 6.11099 14.7067 6.26894 14.5834C8.11681 15.4673 10.1337 15.9255 12.1757 15.9255C14.2177 15.9255 16.2345 15.4673 18.0824 14.5834C18.2422 14.7161 18.4056 14.8431 18.5709 14.957C17.9346 15.339 17.2666 15.6635 16.5745 15.9265C16.9378 16.6529 17.3611 17.3465 17.8399 18C19.9663 17.3479 21.9663 16.328 23.7522 14.9851C24.237 9.87049 22.9238 5.43773 20.2809 1.50747ZM8.29662 12.2709C7.14503 12.2709 6.19364 11.208 6.19364 9.90037C6.19364 8.59278 7.11197 7.52055 8.29295 7.52055C9.47392 7.52055 10.418 8.59278 10.3978 9.90037C10.3776 11.208 9.47025 12.2709 8.29662 12.2709ZM16.0547 12.2709C14.9013 12.2709 13.9535 11.208 13.9535 9.90037C13.9535 8.59278 14.8719 7.52055 16.0547 7.52055C17.2375 7.52055 18.1742 8.59278 18.154 9.90037C18.1338 11.208 17.2283 12.2709 16.0547 12.2709Z" fill="white"/>
</svg>
