<svg width="236" height="88" viewBox="0 0 236 88" fill="none" xmlns="http://www.w3.org/2000/svg">
<path d="M87.6945 72.558C86.2796 70.0501 84.6236 67.662 83.023 65.3526C82.803 65.0355 82.5843 64.7195 82.3655 64.4023C80.3673 61.5103 78.3091 58.5913 76.3191 55.7686L76.2791 55.7122C75.1466 54.1077 73.9763 52.4479 72.8179 50.7951C71.6065 49.0672 70.3868 47.2982 69.206 45.5879L69.1919 45.5679C66.4751 41.6316 63.6666 37.5603 60.7498 33.6545C58.8939 31.1678 58.0942 28.8525 58.1553 26.1438C58.2235 23.0979 57.4332 20.3398 55.8054 17.947C55.7949 17.9318 55.7843 17.9165 55.7737 17.9012C56.1712 17.9835 56.5687 18.061 56.9686 18.135C57.4955 18.2313 57.9789 18.1667 58.367 18.1138C58.5023 18.095 58.6199 18.0798 58.7222 18.0727L60.8051 17.9235L59.8901 16.0488C59.8548 15.976 59.8124 15.8656 59.7689 15.7504C59.6184 15.3522 59.4114 14.806 58.9315 14.3808C58.3776 13.891 57.8272 13.3976 57.2756 12.9031C55.2668 11.1035 53.1898 9.24284 50.9846 7.57483C49.4921 6.44716 47.8102 5.63665 46.1802 4.85198C45.8179 4.67696 45.4557 4.50311 45.0981 4.32573C44.857 4.20592 44.6101 4.10372 44.3607 4.01093C44.5642 3.78304 44.73 3.55046 44.8829 3.33902C44.957 3.23565 45.0335 3.12876 45.1052 3.03714L46.5989 1.1154L44.1867 0.777099C44.0785 0.761828 43.962 0.73951 43.8244 0.713668C43.4586 0.644363 43.0047 0.557438 42.5084 0.589154C41.8979 0.627918 41.3017 0.740685 40.7701 0.841705C40.6089 0.872246 40.4478 0.902787 40.2867 0.930979C35.9515 1.69216 32.3656 1.64282 29.0019 0.77475C24.9337 -0.275393 21.4336 -0.257773 18.2993 0.826434C12.6422 2.78694 8.10598 6.33557 4.81523 11.376C0.864676 17.4243 -0.0197579 23.2894 2.11018 29.3036C2.34893 29.9779 2.28424 30.9423 2.22073 31.8749L2.19956 32.2003C2.14664 33.0331 1.99257 33.913 1.8432 34.7634L1.84085 34.7763C1.77851 35.1299 1.715 35.4952 1.65737 35.8617C1.56564 36.442 1.47155 37.0223 1.37746 37.6026L1.3657 37.673C1.13165 39.1155 0.889375 40.6085 0.687084 42.0933C0.605932 42.6959 0.782349 43.2151 0.910544 43.5945C0.947004 43.7025 0.982287 43.8047 0.999929 43.8776L1.43156 45.6466L3.03813 44.7856C3.13221 44.7351 3.22748 44.6893 3.3251 44.6423C3.61207 44.5025 3.93667 44.3439 4.25893 44.1031C4.41653 43.9856 4.57177 43.867 4.72467 43.7472C5.37505 46.0413 6.41826 48.6561 8.39177 50.9044C10.9804 53.8539 13.3032 56.4722 15.4931 58.912C15.8718 59.3337 16.3423 59.4958 16.6539 59.6039C16.7151 59.625 16.7915 59.6509 16.8233 59.6661L18.1841 60.2875L18.7262 58.8944C18.7427 58.8521 18.7803 58.7769 18.818 58.7029C18.9768 58.3881 19.2167 57.9135 19.1861 57.318C19.1461 56.5263 19.0897 55.7533 19.0262 54.9663C23.4001 56.9703 28.1798 57.3286 32.0422 57.6175C32.6279 57.661 33.0442 57.8266 33.223 57.9546C34.933 59.1845 36.6549 60.4602 38.3202 61.6948C40.85 63.5707 43.4669 65.51 46.1143 67.3378C53.8037 72.6484 61.9659 78.1775 71.7993 84.7415C73.5929 85.9385 76.3615 87.5713 79.6828 87.933C80.0921 87.9777 80.4967 88 80.8883 88C84.1673 88 86.7265 86.4694 88.2896 83.5739C90.1125 80.1968 89.9126 76.4895 87.6945 72.558Z" fill="white"/>
<path d="M17.4077 52.5092C17.5406 54.1714 17.6947 55.7795 17.777 57.3911C17.7935 57.7153 17.5394 58.0536 17.4112 58.3848C17.1184 58.2509 16.742 58.191 16.5444 57.9714C14.1652 55.3202 11.8035 52.6525 9.45367 49.9755C7.40136 47.6379 6.3899 44.8129 5.69247 41.8469C5.65954 41.7071 5.61838 41.5685 5.54075 41.2772C4.77511 41.8939 4.11178 42.4553 3.41552 42.9745C3.1015 43.2095 2.7228 43.3575 2.37231 43.5442C2.26999 43.1225 2.03242 42.6832 2.08652 42.2827C2.36761 40.2106 2.72515 38.1491 3.05093 36.0828C3.24969 34.8201 3.52725 33.562 3.60841 32.291C3.68132 31.1411 3.8107 29.8795 3.4414 28.8352C1.29853 22.7846 2.64988 17.2742 5.99826 12.1469C9.0926 7.40831 13.3748 4.02647 18.7626 2.16112C22.0369 1.02758 25.4052 1.3048 28.6489 2.14233C32.636 3.17132 36.5595 3.01979 40.5312 2.32205C41.2192 2.20106 41.906 2.04365 42.5999 1.99902C43.0575 1.96965 43.5267 2.11178 43.9913 2.17639C43.709 2.53936 43.4667 2.94462 43.1351 3.2559C42.6635 3.69757 42.1272 4.06994 41.4474 4.60675C42.6058 4.97325 43.6008 5.16002 44.4735 5.59229C46.4047 6.54729 48.4346 7.41653 50.1353 8.7016C52.8839 10.7796 55.4125 13.15 57.9976 15.4383C58.3186 15.7225 58.4198 16.2535 58.6233 16.6693C58.1563 16.7022 57.6718 16.8326 57.226 16.7515C55.7159 16.4743 54.2187 16.1219 52.5475 15.7613C53.3237 16.8655 53.9953 17.7958 54.641 18.7426C56.1546 20.9662 56.8062 23.4999 56.7474 26.1159C56.6756 29.3215 57.6988 31.9246 59.6218 34.5006C63.7911 40.0861 67.6617 45.8947 71.664 51.6059C74.8418 56.1413 78.0596 60.6484 81.2069 65.2049C83.0287 67.842 84.8975 70.4662 86.4688 73.2525C88.1906 76.3042 88.8116 79.6473 87.0522 82.9081C85.5479 85.6944 83.0169 86.8797 79.8403 86.5355C77.1458 86.243 74.7736 85.0319 72.5884 83.5742C63.9922 77.8372 55.4254 72.0555 46.9221 66.1834C42.5576 63.1692 38.3613 59.9119 34.0532 56.8143C33.538 56.4443 32.803 56.2634 32.1537 56.2153C27.7328 55.884 23.3329 55.487 19.2601 53.5182C18.6732 53.234 18.1134 52.8945 17.4124 52.5104L17.4077 52.5092ZM40.4771 10.1699C38.4742 8.63113 36.8335 7.10407 34.9529 5.97875C29.7898 2.89058 24.2162 1.49157 18.3662 3.58128C13.4101 5.35149 9.52071 8.69103 6.76979 13.2088C4.64103 16.7069 3.1215 20.4329 3.74366 24.6546C4.22704 27.9354 5.29847 31.0424 6.93679 33.9426C8.90795 37.4313 12.0635 39.7325 15.199 42.0078C21.0971 46.2882 27.0941 50.4324 33.0147 54.6835C39.1245 59.072 45.1427 63.5886 51.2926 67.9207C56.0452 71.2673 60.9602 74.3813 65.7528 77.6715C66.8842 78.4491 67.9898 79.107 69.3764 78.9014C71.4828 78.5878 73.5916 78.2506 75.6698 77.7902C77.214 77.4483 78.356 76.4675 79.1005 75.0438C80.9623 71.4846 81.2504 67.6529 79.1405 64.3662C74.6819 57.4205 69.8022 50.7414 65.0154 44.0094C61.2189 38.6718 57.4142 33.333 53.4025 28.1563C50.6198 24.5653 47.9407 20.9309 45.5261 17.0793C43.9689 14.5949 42.0684 12.3266 40.4771 10.1699ZM3.10033 41.8422C3.73895 41.3829 4.14589 41.0939 4.54929 40.7991C5.95004 39.7783 6.35227 39.9427 6.68981 41.5896C7.18495 43.9977 7.88121 46.3834 9.46072 48.2922C11.733 51.0397 14.204 53.624 16.8302 56.5442C16.5762 54.5437 16.3398 52.8651 16.1681 51.1795C16.1281 50.7848 16.3045 50.3678 16.3821 49.9614C16.695 50.1987 17.0255 50.416 17.3171 50.6768C17.944 51.2359 18.4627 51.9877 19.1813 52.3624C22.9707 54.3382 27.1082 54.8632 31.4634 55.1475C31.2152 54.8996 31.1023 54.7505 30.9576 54.6483C25.9286 51.0855 20.8702 47.5616 15.874 43.9542C12.8903 41.7999 9.79003 39.7454 7.49192 36.8005C6.44988 35.465 5.60779 33.9732 4.68337 32.5647C4.17294 35.5519 3.66015 38.5614 3.10033 41.8422ZM56.8379 15.6744C55.2031 14.2648 53.7424 13.0549 52.337 11.7839C49.2861 9.02581 46.0283 6.6577 41.879 5.8096C40.2466 5.476 40.1007 4.95915 41.1545 3.63884C41.2392 3.53194 41.3274 3.42857 41.4603 3.2653C38.9881 3.54134 36.6159 3.80681 34.1614 4.08168C34.7341 4.41763 35.2422 4.69133 35.7256 5.00379C40.7252 8.23996 44.3818 12.699 47.3456 17.7805C49.7613 21.9224 52.7404 25.6413 55.8747 29.3474C56.2863 23.9169 55.0008 20.1404 51.4678 16.1384C51.1997 15.8353 51.1279 15.3596 50.9644 14.9649C51.3925 14.8815 51.843 14.67 52.2452 14.737C53.6895 14.9778 55.1173 15.3137 56.8379 15.6732V15.6744Z" fill="#1D1D1D"/>
<path d="M40.4771 10.1703C42.0696 12.3258 43.9701 14.5953 45.5261 17.0797C47.9407 20.9314 50.6187 24.5657 53.4025 28.1567C57.4142 33.3322 61.219 38.671 65.0154 44.0098C69.8022 50.7418 74.6819 57.4209 79.1405 64.3666C81.2505 67.6533 80.9635 71.485 79.1005 75.0442C78.356 76.4679 77.2129 77.4487 75.6698 77.7906C73.5916 78.251 71.484 78.5882 69.3764 78.9018C67.9898 79.1085 66.8843 78.4495 65.7529 77.6719C60.9602 74.3805 56.0441 71.2677 51.2926 67.9211C45.1427 63.5902 39.1246 59.0724 33.0147 54.6839C27.0953 50.4328 21.0972 46.2886 15.199 42.0082C12.0647 39.7329 8.90916 37.4317 6.93682 33.943C5.29733 31.0428 4.22707 27.9358 3.74369 24.655C3.12152 20.4345 4.64106 16.7073 6.76982 13.2092C9.51956 8.69026 13.409 5.35189 18.3663 3.58168C24.2162 1.49197 29.7898 2.89099 34.9529 5.97916C36.8335 7.10448 38.4742 8.63153 40.4771 10.1703ZM44.8064 17.6799C42.5541 15.737 40.2525 14.6528 37.3722 14.5612C33.2605 14.4308 31.3752 15.9884 30.753 20.1044C30.1415 24.1558 33.2864 31.0933 39.795 32.423C42.5082 32.9774 45.0639 32.6521 46.8987 30.4038C48.8145 28.0568 49.1838 25.2882 47.9007 22.5453C47.0927 20.8198 45.8519 19.2951 44.8064 17.6799ZM19.1331 43.7291C21.5276 45.9574 24.4338 47.3458 27.9315 47.1814C30.7072 47.051 32.6818 45.3466 33.511 42.7118C34.5319 39.4698 33.2864 36.8197 31.5528 34.2308C29.1653 30.6657 25.9075 28.791 21.5641 29.0001C19.0672 29.1199 17.009 30.5083 16.4715 32.7108C15.4883 36.7305 16.0105 40.4811 19.1342 43.7279L19.1331 43.7291Z" fill="white"/>
<path d="M3.1001 41.8419C3.65993 38.5611 4.17389 35.5516 4.68314 32.5645C5.60756 33.9729 6.44966 35.4647 7.49169 36.8003C9.78981 39.7451 12.89 41.7996 15.8738 43.9539C20.8711 47.5613 25.9284 51.0853 30.9574 54.648C31.1021 54.7502 31.2138 54.8994 31.4631 55.1472C27.108 54.8629 22.9716 54.3379 19.181 52.3621C18.4624 51.9874 17.9438 51.2356 17.3169 50.6765C17.0252 50.4157 16.6947 50.1984 16.3819 49.9611C16.3055 50.3675 16.1279 50.7845 16.1678 51.1792C16.3396 52.8649 16.576 54.5434 16.83 56.5439C14.2037 53.6237 11.7327 51.0394 9.4605 48.2919C7.88216 46.3831 7.18472 43.9974 6.68958 41.5893C6.35086 39.9425 5.94863 39.778 4.54906 40.7988C4.14566 41.0925 3.73872 41.3814 3.1001 41.8419Z" fill="white"/>
<path d="M56.8382 15.6735C55.1175 15.3141 53.6897 14.9781 52.2455 14.7373C51.8421 14.6704 51.3928 14.8818 50.9647 14.9652C51.1282 15.3611 51.2011 15.8356 51.4681 16.1387C55.0011 20.1407 56.2878 23.9173 55.875 29.3477C52.7394 25.6428 49.7615 21.9227 47.3458 17.7808C44.382 12.6993 40.7243 8.24029 35.7258 5.00412C35.2436 4.69166 34.7356 4.41914 34.1616 4.08201C36.6162 3.80714 38.9884 3.54167 41.4606 3.26562C41.3277 3.42773 41.2394 3.53227 41.1548 3.63917C40.1022 4.9583 40.248 5.47633 41.8793 5.80993C46.0286 6.65803 49.2864 9.02614 52.3372 11.7842C53.7427 13.0552 55.2034 14.2651 56.8382 15.6747V15.6735Z" fill="white"/>
<path d="M44.8065 17.6808C45.8532 19.2959 47.0928 20.8195 47.9008 22.5462C49.1851 25.2902 48.8158 28.0577 46.8988 30.4047C45.064 32.6518 42.5083 32.9772 39.7951 32.4239C33.2853 31.0954 30.1416 24.1567 30.7531 20.1053C31.3741 15.9893 33.2594 14.4305 37.3723 14.5621C40.2526 14.6537 42.5542 15.7391 44.8065 17.6808ZM44.7959 30.7582C48.6688 28.1799 48.4865 22.8258 44.3795 19.1973C46.5118 22.9773 47.2751 26.7973 44.7959 30.7582ZM35.8798 19.9996C36.8501 19.9138 37.4722 19.8586 38.0956 19.8034C38.0003 19.209 38.0991 18.4232 37.7545 18.0766C37.417 17.736 36.6278 17.8429 36.0374 17.7524C35.9939 18.3821 35.9492 19.0105 35.881 19.9996H35.8798Z" fill="#1D1D1D"/>
<path d="M19.1346 43.7297C16.0109 40.4818 15.4887 36.7311 16.4719 32.7126C17.0106 30.5101 19.0688 29.1217 21.5645 29.0019C25.9079 28.7928 29.1657 30.6675 31.5532 34.2326C33.2868 36.8216 34.5323 39.4704 33.5114 42.7136C32.6822 45.3484 30.7076 47.0528 27.9319 47.1832C24.4342 47.3476 21.5292 45.9592 19.1335 43.7309L19.1346 43.7297ZM32.4012 42.4834C28.0837 46.5019 23.7873 44.8198 19.4781 42.4399C21.695 44.9302 24.426 46.2799 27.7602 46.2141C30.1324 46.1671 32.0989 44.5308 32.4 42.4846L32.4012 42.4834ZM19.391 36.5549C20.0003 36.6195 20.6989 36.8991 21.1975 36.6935C21.835 36.4316 21.5527 35.0502 20.7941 34.2479C20.2696 33.6923 19.7074 33.4644 19.1123 34.1081C18.3596 34.9221 18.843 35.5882 19.391 36.5561V36.5549Z" fill="#1D1D1D"/>
<path d="M44.7972 30.7582C47.2764 26.7969 46.512 22.9777 44.3809 19.196C48.489 22.8249 48.6701 28.1796 44.7972 30.7582Z" fill="white"/>
<path d="M35.8801 19.9986C35.9495 19.0094 35.993 18.3797 36.0365 17.7512C36.6269 17.8405 37.4161 17.7348 37.7536 18.0755C38.0982 18.422 37.9994 19.2091 38.0947 19.8024C37.4725 19.8576 36.8504 19.9128 35.8789 19.9986H35.8801Z" fill="white"/>
<path d="M32.4009 42.4834C32.0998 44.531 30.1334 46.1663 27.7612 46.2133C24.4269 46.2802 21.6948 44.9293 19.479 42.4387C23.7871 44.8188 28.0846 46.5011 32.4021 42.4822L32.4009 42.4834Z" fill="white"/>
<path d="M19.3905 36.5551C18.8425 35.5871 18.3591 34.921 19.1118 34.1069C19.7069 33.4631 20.2691 33.6922 20.7936 34.2467C21.5522 35.0491 21.8345 36.4306 21.197 36.6926C20.6984 36.8982 19.9998 36.6186 19.3905 36.554V36.5551Z" fill="white"/>
<path d="M92.5875 34.761H85.3664V39.7771H92.0022V43.512H85.3664V51.451H80.7568V31.0134H92.5875V34.7625V34.761Z" fill="white"/>
<path d="M102.477 51.8066C100.041 51.8066 98.1269 51.1256 96.7333 49.7606C95.3397 48.3971 94.6421 46.5471 94.6421 44.2088C94.6421 41.8706 95.365 39.9067 96.8108 38.5433C98.2566 37.1798 100.212 36.4973 102.676 36.4973C105.141 36.4973 107.004 37.1798 108.384 38.5433C109.763 39.9067 110.453 41.7094 110.453 43.9529C110.453 46.3764 109.741 48.2913 108.319 49.6974C106.897 51.1035 104.948 51.8066 102.475 51.8066H102.477ZM102.591 39.9478C101.525 39.9478 100.697 40.3144 100.107 41.0459C99.5174 41.7773 99.2231 42.8138 99.2231 44.1535C99.2231 46.9563 100.356 48.3576 102.619 48.3576C104.883 48.3576 105.859 46.9183 105.859 44.0398C105.859 41.3129 104.769 39.9494 102.591 39.9494V39.9478Z" fill="white"/>
<path d="M122.912 40.9178C122.37 40.624 121.737 40.4755 121.014 40.4755C120.033 40.4755 119.268 40.8341 118.717 41.5514C118.165 42.2687 117.89 43.245 117.89 44.4805V51.4495H113.38V36.8543H117.89V39.5623H117.947C118.66 37.5858 119.945 36.5984 121.8 36.5984C122.276 36.5984 122.646 36.6553 122.914 36.769V40.9163L122.912 40.9178Z" fill="white"/>
<path d="M146.986 36.8558L141.049 52.6185C139.622 56.4103 137.473 58.3046 134.598 58.3046C133.504 58.3046 132.605 58.1813 131.901 57.9349V54.3438C132.501 54.6945 133.153 54.8714 133.856 54.8714C135.018 54.8714 135.826 54.3248 136.283 53.2315L137.053 51.4209L131.117 36.8542H136.111L138.836 45.7333C139.007 46.2847 139.14 46.9356 139.236 47.6861H139.293C139.379 47.1347 139.535 46.4932 139.765 45.7617L142.519 36.8542H146.986V36.8558Z" fill="white"/>
<path d="M155.477 51.8066C153.041 51.8066 151.127 51.1256 149.733 49.7606C148.34 48.3971 147.642 46.5471 147.642 44.2088C147.642 41.8706 148.365 39.9067 149.811 38.5433C151.257 37.1798 153.212 36.4973 155.676 36.4973C158.141 36.4973 160.004 37.1798 161.384 38.5433C162.763 39.9067 163.453 41.7094 163.453 43.9529C163.453 46.3764 162.741 48.2913 161.319 49.6974C159.897 51.1035 157.948 51.8066 155.475 51.8066H155.477ZM155.591 39.9478C154.525 39.9478 153.697 40.3144 153.107 41.0459C152.517 41.7773 152.223 42.8138 152.223 44.1535C152.223 46.9563 153.356 48.3576 155.619 48.3576C157.883 48.3576 158.859 46.9183 158.859 44.0398C158.859 41.3129 157.769 39.9494 155.591 39.9494V39.9478Z" fill="white"/>
<path d="M180.263 51.451H175.768V49.228H175.697C174.583 50.9486 173.094 51.808 171.229 51.808C167.843 51.808 166.148 49.7605 166.148 45.6654V36.8574H170.644V45.2657C170.644 47.3274 171.462 48.3591 173.099 48.3591C173.907 48.3591 174.554 48.0763 175.04 47.5107C175.526 46.9451 175.768 46.1773 175.768 45.2088V36.8574H180.263V51.4525V51.451Z" fill="white"/>
<path d="M91.3743 26.6709H80.7568V6.23169H83.1549V24.5033H91.3743V26.6693V26.6709Z" fill="white"/>
<path d="M105.945 19.9578H95.6277C95.6657 21.5819 96.1039 22.8363 96.9407 23.7211C97.7775 24.6043 98.9291 25.0466 100.394 25.0466C102.039 25.0466 103.553 24.5047 104.932 23.4225V25.617C103.648 26.5491 101.95 27.0136 99.8371 27.0136C97.7237 27.0136 96.1498 26.3516 94.9713 25.0261C93.7912 23.7006 93.2012 21.8363 93.2012 19.4317C93.2012 17.1613 93.845 15.3097 95.1342 13.8799C96.4234 12.4501 98.0243 11.7344 99.9367 11.7344C101.849 11.7344 103.328 12.3521 104.375 13.5876C105.423 14.8231 105.945 16.5373 105.945 18.7333V19.9593V19.9578ZM103.547 17.9766C103.537 16.6273 103.211 15.5767 102.569 14.8262C101.927 14.0758 101.035 13.6998 99.8924 13.6998C98.7503 13.6998 97.8518 14.0947 97.0815 14.8831C96.3111 15.6715 95.835 16.7032 95.6546 17.9766H103.547Z" fill="white"/>
<path d="M116.262 26.5273C115.71 26.8306 114.982 26.9839 114.079 26.9839C111.519 26.9839 110.24 25.5588 110.24 22.7087V14.0713H107.728V12.0759H110.24V8.51325L112.579 7.75806V12.0759H116.262V14.0713H112.579V22.2947C112.579 23.2743 112.745 23.9726 113.079 24.3897C113.411 24.8084 113.963 25.0169 114.734 25.0169C115.324 25.0169 115.833 24.8558 116.26 24.5319V26.5273H116.262Z" fill="white"/>
<path d="M148.142 26.6706H145.802V18.2908C145.802 16.6762 145.553 15.5071 145.053 14.785C144.553 14.063 143.714 13.7012 142.534 13.7012C141.536 13.7012 140.687 14.1578 139.988 15.0694C139.288 15.981 138.939 17.0743 138.939 18.3477V26.6706H136.599V18.0049C136.599 15.1358 135.49 13.7012 133.274 13.7012C132.246 13.7012 131.4 14.131 130.734 14.9904C130.068 15.8499 129.736 16.97 129.736 18.3477V26.6706H127.396V12.0755H129.736V14.3837H129.793C130.829 12.6158 132.342 11.7327 134.331 11.7327C135.331 11.7327 136.201 12.0107 136.943 12.5669C137.684 13.123 138.194 13.8513 138.469 14.755C139.554 12.7406 141.171 11.7342 143.321 11.7342C146.536 11.7342 148.144 13.7154 148.144 17.6778V26.6706H148.142Z" fill="white"/>
<path d="M164.311 19.9578H153.994C154.032 21.5819 154.47 22.8363 155.307 23.7211C156.144 24.6043 157.295 25.0466 158.76 25.0466C160.405 25.0466 161.919 24.5047 163.298 23.4225V25.617C162.014 26.5491 160.317 27.0136 158.203 27.0136C156.09 27.0136 154.518 26.3516 153.337 25.0261C152.157 23.7006 151.567 21.8363 151.567 19.4317C151.567 17.1613 152.211 15.3097 153.5 13.8799C154.79 12.4501 156.39 11.7344 158.303 11.7344C160.215 11.7344 161.694 12.3521 162.742 13.5876C163.789 14.8231 164.311 16.5373 164.311 18.7333V19.9593V19.9578ZM161.913 17.9766C161.903 16.6273 161.577 15.5767 160.935 14.8262C160.293 14.0758 159.401 13.6998 158.26 13.6998C157.12 13.6998 156.22 14.0947 155.449 14.8831C154.679 15.6715 154.203 16.7032 154.022 17.9766H161.914H161.913Z" fill="white"/>
<path d="M176.168 26.6709V6.23169H181.818C189.03 6.23169 192.635 9.55264 192.635 16.1946C192.635 19.3496 191.634 21.8838 189.631 23.7986C187.629 25.7135 184.947 26.6709 181.591 26.6709H176.168ZM178.566 8.39931V24.5048H181.619C184.302 24.5048 186.39 23.7876 187.883 22.353C189.376 20.9185 190.123 18.8851 190.123 16.253C190.123 11.0172 187.336 8.39931 181.76 8.39931H178.563H178.566Z" fill="white"/>
<path d="M202.453 27.012C200.294 27.012 198.57 26.3311 197.281 24.966C195.991 23.6026 195.348 21.7952 195.348 19.5422C195.348 17.0902 196.018 15.177 197.36 13.7977C198.701 12.42 200.514 11.7312 202.797 11.7312C205.079 11.7312 206.675 12.4011 207.898 13.7408C209.121 15.0806 209.731 16.9386 209.731 19.3131C209.731 21.6877 209.072 23.5062 207.756 24.9076C206.438 26.309 204.671 27.0104 202.455 27.0104L202.453 27.012ZM202.624 13.6998C201.121 13.6998 199.932 14.2101 199.057 15.2323C198.181 16.2545 197.744 17.6621 197.744 19.4585C197.744 21.2548 198.186 22.5519 199.071 23.5489C199.957 24.5458 201.14 25.045 202.624 25.045C204.108 25.045 205.299 24.5553 206.114 23.5773C206.927 22.5993 207.333 21.2075 207.333 19.4016C207.333 17.5958 206.927 16.1707 206.114 15.1833C205.301 14.1958 204.138 13.7013 202.624 13.7013V13.6998Z" fill="white"/>
<path d="M222.675 8.36934C222.256 8.36934 221.9 8.22714 221.604 7.94118C221.308 7.6568 221.161 7.295 221.161 6.85737C221.161 6.41974 221.308 6.05636 221.604 5.76724C221.898 5.47811 222.256 5.33276 222.675 5.33276C223.094 5.33276 223.467 5.47811 223.766 5.76724C224.065 6.05636 224.216 6.42132 224.216 6.85737C224.216 7.29342 224.065 7.63152 223.766 7.92696C223.467 8.22082 223.104 8.36934 222.675 8.36934ZM223.817 26.6693H221.478V12.0742H223.817V26.6693Z" fill="white"/>
<path d="M235.333 26.5273C234.781 26.8306 234.053 26.9839 233.15 26.9839C230.591 26.9839 229.311 25.5588 229.311 22.7087V14.0713H226.799V12.0759H229.311V8.51325L231.65 7.75806V12.0759H235.333V14.0713H231.65V22.2947C231.65 23.2743 231.816 23.9726 232.15 24.3897C232.484 24.8084 233.034 25.0169 233.805 25.0169C234.395 25.0169 234.904 24.8558 235.331 24.5319V26.5273H235.333Z" fill="white"/>
</svg>
