<svg width="24" height="18" viewBox="0 0 24 18" fill="none" xmlns="http://www.w3.org/2000/svg">
<path d="M22.8383 2.41798C22.5582 1.43768 21.858 0.737465 20.8777 0.457379C17.9368 0.177293 14.9959 -0.102793 12.055 0.0372495C9.1141 0.0372495 6.1732 0.177293 3.23229 0.457379C2.39204 0.737465 1.55178 1.57772 1.27169 2.41798C0.991605 4.65867 0.851562 6.75931 0.851562 9C0.851562 11.2407 0.991605 13.3413 1.27169 15.582C1.55178 16.5623 2.25199 17.2625 3.23229 17.5426C6.1732 17.8227 9.1141 18.1028 12.055 17.9627C14.9959 17.9627 17.9368 17.8227 20.8777 17.5426C21.858 17.2625 22.5582 16.5623 22.8383 15.582C23.1184 13.4814 23.2584 11.2407 23.2584 9C23.2584 6.75931 23.1184 4.65867 22.8383 2.41798ZM9.25414 13.2013V4.79871L16.5364 9L9.25414 13.2013Z" fill="white"/>
</svg>
